<svg xmlns="http://www.w3.org/2000/svg" viewBox="0 0 15.807 12.3">
  <defs>
    <style>
      .cls-1 {
        fill: #3c3f49;
      }
    </style>
  </defs>
  <g id="Conference" transform="translate(-0.958 -0.6)">
    <path id="Path_954" data-name="Path 954" class="cls-1" d="M11.1,1.4a6.661,6.661,0,0,1,2.2,1.8,4.006,4.006,0,0,1,.8,2.3,3.743,3.743,0,0,1-.5,1.8,6.684,6.684,0,0,1-1.4,1.6,7.814,7.814,0,0,1-2,1.1,7.664,7.664,0,0,1-2.7.4,11.076,11.076,0,0,1-1.9-.2,7.467,7.467,0,0,1-3.3.9,1.136,1.136,0,0,1-.8-.3,1.794,1.794,0,0,1-.5-.7,1.063,1.063,0,0,1,.1-.8,1.167,1.167,0,0,1,.6-.6,2.186,2.186,0,0,0,.5-.3c-.2-.3-.4-.5-.5-.7A3.6,3.6,0,0,1,1,5.5a4.264,4.264,0,0,1,.8-2.3A4.889,4.889,0,0,1,4,1.4,7.845,7.845,0,0,1,7.5.6,8.288,8.288,0,0,1,11.1,1.4ZM4.7,2.5A6.228,6.228,0,0,0,2.9,3.9a2.66,2.66,0,0,0-.6,1.6,2.3,2.3,0,0,0,.4,1.4A5.731,5.731,0,0,0,3.8,8,2.257,2.257,0,0,1,2.3,9.8a5.912,5.912,0,0,0,3.1-1,7.8,7.8,0,0,0,2.2.3,6.088,6.088,0,0,0,2.8-.6,3.677,3.677,0,0,0,1.8-1.4,2.66,2.66,0,0,0,.6-1.6,2.66,2.66,0,0,0-.6-1.6,4.355,4.355,0,0,0-1.8-1.4,6.388,6.388,0,0,0-2.8-.6A7.173,7.173,0,0,0,4.7,2.5ZM16.2,12.6a1.136,1.136,0,0,1-.8.3,6.3,6.3,0,0,1-2.8-.8,7.845,7.845,0,0,1-2.2.2,5.092,5.092,0,0,1-2.1-.6,11.561,11.561,0,0,0,3.2-.8,5.067,5.067,0,0,0,1.3-.2,4.8,4.8,0,0,0,2.6.9A2.281,2.281,0,0,1,14.1,10a3.819,3.819,0,0,0,.9-.9,2.01,2.01,0,0,0,.4-1.3,2.92,2.92,0,0,0-.2-.9,4.517,4.517,0,0,0,.1-2,4.508,4.508,0,0,1,1,1.4,4.191,4.191,0,0,1,.4,1.5,3.639,3.639,0,0,1-1,2.5c.1.1.2.1.3.2.3.1.4.4.6.6a.783.783,0,0,1,.1.8A1.157,1.157,0,0,1,16.2,12.6Z"/>
  </g>
</svg>
