<svg xmlns="http://www.w3.org/2000/svg" viewBox="0 0 15.516 14.163">
  <defs>
    <style>
      .cls-1 {
        fill: #3c3f49;
        stroke: #444;
        stroke-width: 0.5px;
      }
    </style>
  </defs>
  <g id="Schedule" transform="translate(0.258 -22.478)">
    <g id="Group_3468" data-name="Group 3468" transform="translate(0 22.723)">
      <path id="Path_221" data-name="Path 221" class="cls-1" d="M14.93,35.675l-3.153-5.124a.47.47,0,0,0-.8,0l-.409.665a.22.22,0,1,0,.375.231l.409-.665a.03.03,0,0,1,.051,0l3.153,5.124a.03.03,0,0,1-.025.046H12.784L7.9,28.014a.469.469,0,0,0-.175-.166h0V26.354a2.034,2.034,0,0,0,.536.071,4.146,4.146,0,0,0,1.432-.345,2.518,2.518,0,0,1,1.89-.2.272.272,0,0,0,.374-.253V23.142a.272.272,0,0,0-.166-.251,2.854,2.854,0,0,0-2.251.176,2.449,2.449,0,0,1-1.951.172.22.22,0,0,0-.31.2v.008a.226.226,0,0,0-.006.051v4.348a.469.469,0,0,0-.174.166L4.781,31.783l-.758-1.232a.47.47,0,0,0-.8,0L.069,35.675a.47.47,0,0,0,.4.716H14.53a.47.47,0,0,0,.4-.716ZM7.72,23.754a3.126,3.126,0,0,0,1.974-.273,2.6,2.6,0,0,1,1.823-.224V25.4a3.129,3.129,0,0,0-1.976.272A2.6,2.6,0,0,1,7.72,25.9Zm-4.987,12.2.755-1.227a.22.22,0,1,0-.375-.231l-.9,1.458H.47a.03.03,0,0,1-.025-.046L3.6,30.781a.03.03,0,0,1,.051,0L4.523,32.2,3.65,33.621a.22.22,0,1,0,.375.231l3.45-5.607a.03.03,0,0,1,.051,0l4.742,7.706Z" transform="translate(0 -22.723)"/>
    </g>
  </g>
</svg>
