<svg xmlns="http://www.w3.org/2000/svg" viewBox="0 0 18.81 19.5">
    <defs>
        <style>
            .cls-1{fill:none;stroke:#fff;stroke-miterlimit:10;stroke-width:1.5px}
        </style>
    </defs>
    <g id="noun_Settings_1361006_000000" transform="translate(-135.25 -120.25)">
        <ellipse id="Ellipse_6" cx="3.172" cy="3.172" class="cls-1" data-name="Ellipse 6" rx="3.172" ry="3.172" transform="translate(141.483 126.828)"/>
        <path id="Path_857" d="M143.085 139a.528.528 0 0 1-.525-.534v-1.01a2.195 2.195 0 0 0-3.223-1.934 1.836 1.836 0 0 0-.136.078l-.778.449-.087.051a.544.544 0 0 1-.221.048.537.537 0 0 1-.456-.255l-1.577-2.73-.021-.035a.532.532 0 0 1 .186-.7l.039-.023.87-.5a.161.161 0 0 0 .018-.007 2.188 2.188 0 0 0 1.1-1.894 2.193 2.193 0 0 0-1.1-1.894l-.016-.007-.872-.5-.039-.023a.532.532 0 0 1-.186-.7l.021-.035 1.577-2.732a.532.532 0 0 1 .456-.255.544.544 0 0 1 .221.048l.085.051.778.449c.044.028.087.053.133.078a2.2 2.2 0 0 0 3.225-1.934v-1.01a.527.527 0 0 1 .525-.534h3.137a.546.546 0 0 1 .548.534v1.01a2.182 2.182 0 0 0 2.182 2.189 2.14 2.14 0 0 0 1.02-.255c.046-.023.09-.051.133-.078l.778-.449.085-.051a.544.544 0 0 1 .221-.048.537.537 0 0 1 .456.255l1.577 2.73.021.035a.532.532 0 0 1-.186.7l-.037.023-.868.5-.012.007a2.192 2.192 0 0 0-1.084 1.9 2.183 2.183 0 0 0 1.091 1.894v.007l.872.5.039.023a.532.532 0 0 1 .186.7l-.021.035-1.577 2.73a.532.532 0 0 1-.456.256.544.544 0 0 1-.221-.048l-.085-.051-.778-.449a1.954 1.954 0 0 0-.134-.078 2.149 2.149 0 0 0-1.022-.255 2.181 2.181 0 0 0-2.182 2.189v1.01a.548.548 0 0 1-.548.534z" class="cls-1" data-name="Path 857"/>
    </g>
</svg>
