<svg xmlns="http://www.w3.org/2000/svg" viewBox="0 0 18.185 18.186">
    <defs>
        <style>
            .cls-1{fill:none;stroke:#949596;stroke-miterlimit:10;stroke-width:2px}
        </style>
    </defs>
    <g id="noun_link_1460359_000000" transform="translate(-119 -119)">
        <path id="Path_884" d="M129.069 436.28l-3.492 3.492a2.023 2.023 0 0 1-2.851 0l-2.139-2.141a2.023 2.023 0 0 1 0-2.851l3.492-3.492a2.023 2.023 0 0 1 2.851 0l2.139 2.139a2.025 2.025 0 0 1 0 2.853z" class="cls-1" data-name="Path 884" transform="translate(0 -304.359)"/>
        <path id="Path_885" d="M439.869 125.578l-3.488 3.488a2.029 2.029 0 0 1-2.859 0l-2.135-2.135a2.023 2.023 0 0 1 0-2.851l3.492-3.492a2.023 2.023 0 0 1 2.851 0l2.139 2.139a2.023 2.023 0 0 1 0 2.851z" class="cls-1" data-name="Path 885" transform="translate(-304.457)"/>
        <path id="Path_886" d="M334.5 341.647l7.247-7.247" class="cls-1" data-name="Path 886" transform="translate(-210.122 -210.024)"/>
    </g>
</svg>
