<svg xmlns="http://www.w3.org/2000/svg" viewBox="0 0 15 11.2">
  <defs>
    <style>
      .cls-1 {
        fill: #3c3f49;
      }
    </style>
  </defs>
  <g id="Show_Lead_Capture" data-name="Show Lead Capture" transform="translate(0 -1.8)">
    <path id="Path_956" data-name="Path 956" class="cls-1" d="M15,11.3v1.5a.215.215,0,0,1-.2.2H.2a.215.215,0,0,1-.2-.2V2a.215.215,0,0,1,.2-.2H1.7a.215.215,0,0,1,.2.2v9.1H14.8A.215.215,0,0,1,15,11.3ZM10.1,2.7a.764.764,0,0,0-.5.2.725.725,0,0,0,0,1l1,1L8.4,7,6.8,5.4c-.1-.1-.1-.1-.2-.1a.367.367,0,0,0-.3.1L2.8,8.8c-.1.1-.1.1-.1.2a.367.367,0,0,0,.1.3l.8.8c.1.1.1.1.2.1a.367.367,0,0,0,.3-.1L6.5,7.7,8.1,9.3a1.007,1.007,0,0,0,.3.1c.1,0,.1,0,.2-.1l3.2-3.2,1,1A.7.7,0,0,0,14,6.6V3.4a.764.764,0,0,0-.2-.5.764.764,0,0,0-.5-.2Z"/>
  </g>
</svg>
