<svg xmlns="http://www.w3.org/2000/svg" viewBox="0 0 36 35.987">
    <defs>
        <style>
            .cls-1{fill:#ffc600}
        </style>
    </defs>
    <g id="simpleray-logo-sun" transform="translate(0 2.268)">
        <g id="simpleray-logo-sun-2" data-name="simpleray-logo-sun" transform="translate(0 -2.268)">
            <g id="simpleray-sun">
                <path id="Path_845" d="M17.972 18.737c-.082.178-5.6 12.241 5.9 17.005 0 0-15.3.168-5.9-17.006h-.015l.016-.016-.021.018c-18.244 7.127-6.42 16.806-6.42 16.806-5.642-10.829 5.844-16.525 6.417-16.8-14.686 12.917-.261 17.974-.261 17.974-9.021-8.249-.17-17.525.267-17.972l.017-.008zm0-.009C30.929 33.368 36 18.987 36 18.987c-8.249 8.963-17.515.23-18.023-.262v-.013l-.01.01.01-.008C35.175 28.06 35 12.813 35 12.813c-4.6 11.048-16 6.347-16.985 5.918v-.013l.016.016-.018-.021C37.343 21.6 31.962 7.352 31.962 7.352c-.533 11.97-12.889 11.424-13.936 11.354 18.2-7.135 6.393-16.8 6.393-16.8C30 12.611 18.833 18.3 18.026 18.693v-.01c14.648-12.9.239-17.952.239-17.952 8.869 8.116.46 17.22-.239 17.946v-.046c9.3-17.088-5.951-16.921-5.951-16.921 10.979 4.544 6.457 15.736 5.949 16.906C17.5-.788 4.387 6.948 4.387 6.948 16.2 5.406 17.877 17.42 18.017 18.632l-.017.029C10.856.553 1.171 12.318 1.171 12.318 11.81 6.806 17.512 17.69 18 18.664v.014C5.065 4.082 0 18.45 0 18.45c8.115-8.823 17.227-.5 17.993.233v.017h-.021C.812 9.408.98 24.627.98 24.627c4.6-11.048 16-6.347 16.985-5.918v.013l-.016-.016.018.019c-19.393-2.932-14 11.349-14 11.349.55-12.363 13.714-11.374 14-11.349.5 19.5 13.644 11.744 13.644 11.744-11.94 1.558-13.523-10.731-13.633-11.721 7.149 18.162 16.846 6.38 16.846 6.38-10.824 5.609-16.538-5.766-16.847-6.4zm.028-.017l-.019-.01H18l.013.013v.014zm.014-.081v.038l-.01-.024zm-.014.028l.01.019-.01-.013zm-.01.018l.011.011h-.016zm-.022.014v.038z" class="cls-1" data-name="Path 845" transform="translate(0 -.732)"/>
            </g>
        </g>
    </g>
</svg>
