<svg xmlns="http://www.w3.org/2000/svg" viewBox="0 0 15.5 13.869">
  <defs>
    <style>
      .cls-1 {
        fill: none;
        stroke: #3c3f49;
        stroke-width: 1.5px;
      }
    </style>
  </defs>
  <path id="Union_31" data-name="Union 31" class="cls-1" d="M16581.691,1446.836a2.28,2.28,0,1,1,2.279,2.276A2.283,2.283,0,0,1,16581.691,1446.836Zm-9.439-3.258a2.929,2.929,0,0,1,5.857,0,2.88,2.88,0,0,1-.207,1.08l3.635,1.614-3.635-1.614a2.928,2.928,0,0,1-5.65-1.08Zm9.494-3.485-3.789,2.1Zm-.055-1.073a2.28,2.28,0,1,1,2.279,2.282A2.278,2.278,0,0,1,16581.691,1439.021Z" transform="translate(-16571.502 -1435.994)"/>
</svg>
