<svg id="Schedule_Consulation" data-name="Schedule Consulation" xmlns="http://www.w3.org/2000/svg" viewBox="0 0 13.9 15">
  <defs>
    <style>
      .cls-1 {
        fill: #3c3f49;
      }
    </style>
  </defs>
  <path id="Path_955" data-name="Path 955" class="cls-1" d="M13.9,3.2V13.9A1.11,1.11,0,0,1,12.8,15H1.1A1.11,1.11,0,0,1,0,13.9V3.2A1.11,1.11,0,0,1,1.1,2.1H2.2V1.3A1.206,1.206,0,0,1,3.5,0H4A1.324,1.324,0,0,1,5.3,1.3v.8H8.5V1.3A1.493,1.493,0,0,1,9.9,0h.5a1.324,1.324,0,0,1,1.3,1.3v.8h1.1A1.049,1.049,0,0,1,13.9,3.2Zm-1,2.2H1.1V14H12.9S12.9,5.4,12.9,5.4ZM3.2,3.8c0,.1.1.2.3.2H4a.265.265,0,0,0,.3-.3V1.3A.265.265,0,0,0,4,1H3.5a.265.265,0,0,0-.3.3ZM9.4,9.1a.265.265,0,0,1,.3.3v.5a.265.265,0,0,1-.3.3H7.5v1.9a.265.265,0,0,1-.3.3H6.7a.265.265,0,0,1-.3-.3V10.2H4.6a.265.265,0,0,1-.3-.3V9.4a.265.265,0,0,1,.3-.3H6.5V7.2c-.1-.1.1-.2.2-.2h.5a.265.265,0,0,1,.3.3V9.2l1.9-.1Zm.2-5.4a.265.265,0,0,0,.3.3h.5a.265.265,0,0,0,.3-.3V1.3a.265.265,0,0,0-.3-.3H9.9a.265.265,0,0,0-.3.3Z"/>
</svg>
